<svg width="366" height="16" viewBox="0 0 366 16" fill="none" xmlns="http://www.w3.org/2000/svg">
<path fill-rule="evenodd" clip-rule="evenodd" d="M8.50004 1.83337C5.09428 1.83337 2.33337 4.59428 2.33337 8.00004C2.33337 11.4058 5.09428 14.1667 8.50004 14.1667C11.9058 14.1667 14.6667 11.4058 14.6667 8.00004C14.6667 4.59428 11.9058 1.83337 8.50004 1.83337ZM1.33337 8.00004C1.33337 4.042 4.542 0.833374 8.50004 0.833374C12.4581 0.833374 15.6667 4.042 15.6667 8.00004C15.6667 11.9581 12.4581 15.1667 8.50004 15.1667C4.542 15.1667 1.33337 11.9581 1.33337 8.00004ZM8.50004 4.83337C8.77618 4.83337 9.00004 5.05723 9.00004 5.33337V8.00004C9.00004 8.27618 8.77618 8.50004 8.50004 8.50004C8.2239 8.50004 8.00004 8.27618 8.00004 8.00004V5.33337C8.00004 5.05723 8.2239 4.83337 8.50004 4.83337ZM8.00004 10.6667C8.00004 10.3906 8.2239 10.1667 8.50004 10.1667H8.50671C8.78285 10.1667 9.00671 10.3906 9.00671 10.6667C9.00671 10.9428 8.78285 11.1667 8.50671 11.1667H8.50004C8.2239 11.1667 8.00004 10.9428 8.00004 10.6667Z" fill="#FF5959"/>
<path d="M30.4414 13H25.6719V4.43359H30.4414V5.3125H26.668V8.08398H30.2246V8.95117H26.668V12.1211H30.4414V13ZM35.1113 6.46094C35.2402 6.46094 35.375 6.46875 35.5156 6.48438C35.6562 6.49609 35.7812 6.51367 35.8906 6.53711L35.7676 7.43945C35.6621 7.41211 35.5449 7.39062 35.416 7.375C35.2871 7.35938 35.166 7.35156 35.0527 7.35156C34.7949 7.35156 34.5508 7.4043 34.3203 7.50977C34.0938 7.61133 33.8945 7.75977 33.7227 7.95508C33.5508 8.14648 33.416 8.37891 33.3184 8.65234C33.2207 8.92188 33.1719 9.22266 33.1719 9.55469V13H32.1934V6.57812H33.002L33.1074 7.76172H33.1484C33.2812 7.52344 33.4414 7.30664 33.6289 7.11133C33.8164 6.91211 34.0332 6.75391 34.2793 6.63672C34.5293 6.51953 34.8066 6.46094 35.1113 6.46094ZM40.0215 6.46094C40.1504 6.46094 40.2852 6.46875 40.4258 6.48438C40.5664 6.49609 40.6914 6.51367 40.8008 6.53711L40.6777 7.43945C40.5723 7.41211 40.4551 7.39062 40.3262 7.375C40.1973 7.35938 40.0762 7.35156 39.9629 7.35156C39.7051 7.35156 39.4609 7.4043 39.2305 7.50977C39.0039 7.61133 38.8047 7.75977 38.6328 7.95508C38.4609 8.14648 38.3262 8.37891 38.2285 8.65234C38.1309 8.92188 38.082 9.22266 38.082 9.55469V13H37.1035V6.57812H37.9121L38.0176 7.76172H38.0586C38.1914 7.52344 38.3516 7.30664 38.5391 7.11133C38.7266 6.91211 38.9434 6.75391 39.1895 6.63672C39.4395 6.51953 39.7168 6.46094 40.0215 6.46094ZM47.5508 9.77734C47.5508 10.3047 47.4824 10.7754 47.3457 11.1895C47.209 11.6035 47.0117 11.9531 46.7539 12.2383C46.4961 12.5234 46.1836 12.7422 45.8164 12.8945C45.4531 13.043 45.041 13.1172 44.5801 13.1172C44.1504 13.1172 43.7559 13.043 43.3965 12.8945C43.041 12.7422 42.7324 12.5234 42.4707 12.2383C42.2129 11.9531 42.0117 11.6035 41.8672 11.1895C41.7266 10.7754 41.6562 10.3047 41.6562 9.77734C41.6562 9.07422 41.7754 8.47656 42.0137 7.98438C42.252 7.48828 42.5918 7.11133 43.0332 6.85352C43.4785 6.5918 44.0078 6.46094 44.6211 6.46094C45.207 6.46094 45.7188 6.5918 46.1562 6.85352C46.5977 7.11523 46.9395 7.49414 47.1816 7.99023C47.4277 8.48242 47.5508 9.07812 47.5508 9.77734ZM42.6641 9.77734C42.6641 10.293 42.7324 10.7402 42.8691 11.1191C43.0059 11.498 43.2168 11.791 43.502 11.998C43.7871 12.2051 44.1543 12.3086 44.6035 12.3086C45.0488 12.3086 45.4141 12.2051 45.6992 11.998C45.9883 11.791 46.2012 11.498 46.3379 11.1191C46.4746 10.7402 46.543 10.293 46.543 9.77734C46.543 9.26562 46.4746 8.82422 46.3379 8.45312C46.2012 8.07812 45.9902 7.78906 45.7051 7.58594C45.4199 7.38281 45.0508 7.28125 44.5977 7.28125C43.9297 7.28125 43.4395 7.50195 43.127 7.94336C42.8184 8.38477 42.6641 8.99609 42.6641 9.77734ZM52.1504 6.46094C52.2793 6.46094 52.4141 6.46875 52.5547 6.48438C52.6953 6.49609 52.8203 6.51367 52.9297 6.53711L52.8066 7.43945C52.7012 7.41211 52.584 7.39062 52.4551 7.375C52.3262 7.35938 52.2051 7.35156 52.0918 7.35156C51.834 7.35156 51.5898 7.4043 51.3594 7.50977C51.1328 7.61133 50.9336 7.75977 50.7617 7.95508C50.5898 8.14648 50.4551 8.37891 50.3574 8.65234C50.2598 8.92188 50.2109 9.22266 50.2109 9.55469V13H49.2324V6.57812H50.041L50.1465 7.76172H50.1875C50.3203 7.52344 50.4805 7.30664 50.668 7.11133C50.8555 6.91211 51.0723 6.75391 51.3184 6.63672C51.5684 6.51953 51.8457 6.46094 52.1504 6.46094ZM64.2324 6.46094C64.9395 6.46094 65.4727 6.64648 65.832 7.01758C66.1914 7.38477 66.3711 7.97656 66.3711 8.79297V13H65.4102V8.83984C65.4102 8.32031 65.2969 7.93164 65.0703 7.67383C64.8477 7.41211 64.5156 7.28125 64.0742 7.28125C63.4531 7.28125 63.002 7.46094 62.7207 7.82031C62.4395 8.17969 62.2988 8.70898 62.2988 9.4082V13H61.332V8.83984C61.332 8.49219 61.2812 8.20312 61.1797 7.97266C61.082 7.74219 60.9336 7.57031 60.7344 7.45703C60.5391 7.33984 60.291 7.28125 59.9902 7.28125C59.5645 7.28125 59.2227 7.36914 58.9648 7.54492C58.707 7.7207 58.5195 7.98242 58.4023 8.33008C58.2891 8.67383 58.2324 9.09766 58.2324 9.60156V13H57.2598V6.57812H58.0449L58.1914 7.48633H58.2441C58.373 7.26367 58.5352 7.07617 58.7305 6.92383C58.9258 6.77148 59.1445 6.65625 59.3867 6.57812C59.6289 6.5 59.8867 6.46094 60.1602 6.46094C60.6484 6.46094 61.0566 6.55273 61.3848 6.73633C61.7168 6.91602 61.957 7.19141 62.1055 7.5625H62.1582C62.3691 7.19141 62.6582 6.91602 63.0254 6.73633C63.3926 6.55273 63.7949 6.46094 64.2324 6.46094ZM70.8418 6.46094C71.3887 6.46094 71.8574 6.58203 72.248 6.82422C72.6387 7.06641 72.9375 7.40625 73.1445 7.84375C73.3516 8.27734 73.4551 8.78516 73.4551 9.36719V9.9707H69.0195C69.0312 10.7246 69.2188 11.2988 69.582 11.6934C69.9453 12.0879 70.457 12.2852 71.1172 12.2852C71.5234 12.2852 71.8828 12.248 72.1953 12.1738C72.5078 12.0996 72.832 11.9902 73.168 11.8457V12.7012C72.8438 12.8457 72.5215 12.9512 72.2012 13.0176C71.8848 13.084 71.5098 13.1172 71.0762 13.1172C70.459 13.1172 69.9199 12.9922 69.459 12.7422C69.002 12.4883 68.6465 12.1172 68.3926 11.6289C68.1387 11.1406 68.0117 10.543 68.0117 9.83594C68.0117 9.14453 68.127 8.54688 68.3574 8.04297C68.5918 7.53516 68.9199 7.14453 69.3418 6.87109C69.7676 6.59766 70.2676 6.46094 70.8418 6.46094ZM70.8301 7.25781C70.3105 7.25781 69.8965 7.42773 69.5879 7.76758C69.2793 8.10742 69.0957 8.58203 69.0371 9.19141H72.4355C72.4316 8.80859 72.3711 8.47266 72.2539 8.18359C72.1406 7.89062 71.9668 7.66406 71.7324 7.50391C71.498 7.33984 71.1973 7.25781 70.8301 7.25781ZM79.2617 11.2422C79.2617 11.6523 79.1582 11.998 78.9512 12.2793C78.748 12.5566 78.4551 12.7656 78.0723 12.9062C77.6934 13.0469 77.2402 13.1172 76.7129 13.1172C76.2637 13.1172 75.875 13.082 75.5469 13.0117C75.2188 12.9414 74.9316 12.8418 74.6855 12.7129V11.8164C74.9473 11.9453 75.2598 12.0625 75.623 12.168C75.9863 12.2734 76.3574 12.3262 76.7363 12.3262C77.291 12.3262 77.6934 12.2363 77.9434 12.0566C78.1934 11.877 78.3184 11.6328 78.3184 11.3242C78.3184 11.1484 78.2676 10.9941 78.166 10.8613C78.0684 10.7246 77.9023 10.5938 77.668 10.4688C77.4336 10.3398 77.1094 10.1992 76.6953 10.0469C76.2852 9.89062 75.9297 9.73633 75.6289 9.58398C75.332 9.42773 75.1016 9.23828 74.9375 9.01562C74.7773 8.79297 74.6973 8.50391 74.6973 8.14844C74.6973 7.60547 74.916 7.18945 75.3535 6.90039C75.7949 6.60742 76.373 6.46094 77.0879 6.46094C77.4746 6.46094 77.8359 6.5 78.1719 6.57812C78.5117 6.65234 78.8281 6.75391 79.1211 6.88281L78.793 7.66211C78.5273 7.54883 78.2441 7.45312 77.9434 7.375C77.6426 7.29688 77.3359 7.25781 77.0234 7.25781C76.5742 7.25781 76.2285 7.33203 75.9863 7.48047C75.748 7.62891 75.6289 7.83203 75.6289 8.08984C75.6289 8.28906 75.6836 8.45312 75.793 8.58203C75.9062 8.71094 76.0859 8.83203 76.332 8.94531C76.5781 9.05859 76.9023 9.19141 77.3047 9.34375C77.707 9.49219 78.0547 9.64648 78.3477 9.80664C78.6406 9.96289 78.8652 10.1543 79.0215 10.3809C79.1816 10.6035 79.2617 10.8906 79.2617 11.2422ZM84.9805 11.2422C84.9805 11.6523 84.877 11.998 84.6699 12.2793C84.4668 12.5566 84.1738 12.7656 83.791 12.9062C83.4121 13.0469 82.959 13.1172 82.4316 13.1172C81.9824 13.1172 81.5938 13.082 81.2656 13.0117C80.9375 12.9414 80.6504 12.8418 80.4043 12.7129V11.8164C80.666 11.9453 80.9785 12.0625 81.3418 12.168C81.7051 12.2734 82.0762 12.3262 82.4551 12.3262C83.0098 12.3262 83.4121 12.2363 83.6621 12.0566C83.9121 11.877 84.0371 11.6328 84.0371 11.3242C84.0371 11.1484 83.9863 10.9941 83.8848 10.8613C83.7871 10.7246 83.6211 10.5938 83.3867 10.4688C83.1523 10.3398 82.8281 10.1992 82.4141 10.0469C82.0039 9.89062 81.6484 9.73633 81.3477 9.58398C81.0508 9.42773 80.8203 9.23828 80.6562 9.01562C80.4961 8.79297 80.416 8.50391 80.416 8.14844C80.416 7.60547 80.6348 7.18945 81.0723 6.90039C81.5137 6.60742 82.0918 6.46094 82.8066 6.46094C83.1934 6.46094 83.5547 6.5 83.8906 6.57812C84.2305 6.65234 84.5469 6.75391 84.8398 6.88281L84.5117 7.66211C84.2461 7.54883 83.9629 7.45312 83.6621 7.375C83.3613 7.29688 83.0547 7.25781 82.7422 7.25781C82.293 7.25781 81.9473 7.33203 81.7051 7.48047C81.4668 7.62891 81.3477 7.83203 81.3477 8.08984C81.3477 8.28906 81.4023 8.45312 81.5117 8.58203C81.625 8.71094 81.8047 8.83203 82.0508 8.94531C82.2969 9.05859 82.6211 9.19141 83.0234 9.34375C83.4258 9.49219 83.7734 9.64648 84.0664 9.80664C84.3594 9.96289 84.584 10.1543 84.7402 10.3809C84.9004 10.6035 84.9805 10.8906 84.9805 11.2422ZM88.9473 6.47266C89.7129 6.47266 90.2812 6.64453 90.6523 6.98828C91.0234 7.33203 91.209 7.88086 91.209 8.63477V13H90.5L90.3125 12.0508H90.2656C90.0859 12.2852 89.8984 12.4824 89.7031 12.6426C89.5078 12.7988 89.2812 12.918 89.0234 13C88.7695 13.0781 88.457 13.1172 88.0859 13.1172C87.6953 13.1172 87.3477 13.0488 87.043 12.9121C86.7422 12.7754 86.5039 12.5684 86.3281 12.291C86.1562 12.0137 86.0703 11.6621 86.0703 11.2363C86.0703 10.5957 86.3242 10.1035 86.832 9.75977C87.3398 9.41602 88.1133 9.22852 89.1523 9.19727L90.2598 9.15039V8.75781C90.2598 8.20312 90.1406 7.81445 89.9023 7.5918C89.6641 7.36914 89.3281 7.25781 88.8945 7.25781C88.5586 7.25781 88.2383 7.30664 87.9336 7.4043C87.6289 7.50195 87.3398 7.61719 87.0664 7.75L86.7676 7.01172C87.0566 6.86328 87.3887 6.73633 87.7637 6.63086C88.1387 6.52539 88.5332 6.47266 88.9473 6.47266ZM90.248 9.83594L89.2695 9.87695C88.4688 9.9082 87.9043 10.0391 87.5762 10.2695C87.248 10.5 87.084 10.8262 87.084 11.248C87.084 11.6152 87.1953 11.8867 87.418 12.0625C87.6406 12.2383 87.9355 12.3262 88.3027 12.3262C88.873 12.3262 89.3398 12.168 89.7031 11.8516C90.0664 11.5352 90.248 11.0605 90.248 10.4277V9.83594ZM95.0059 15.8828C94.1621 15.8828 93.5117 15.7246 93.0547 15.4082C92.5977 15.0957 92.3691 14.6562 92.3691 14.0898C92.3691 13.6875 92.4961 13.3438 92.75 13.0586C93.0078 12.7734 93.3633 12.584 93.8164 12.4902C93.6484 12.4121 93.5039 12.2949 93.3828 12.1387C93.2656 11.9824 93.207 11.8027 93.207 11.5996C93.207 11.3652 93.2715 11.1602 93.4004 10.9844C93.5332 10.8047 93.7344 10.6328 94.0039 10.4688C93.668 10.332 93.3945 10.1016 93.1836 9.77734C92.9766 9.44922 92.873 9.06836 92.873 8.63477C92.873 8.17383 92.9688 7.78125 93.1602 7.45703C93.3516 7.12891 93.6289 6.87891 93.9922 6.70703C94.3555 6.53516 94.7949 6.44922 95.3105 6.44922C95.4238 6.44922 95.5371 6.45508 95.6504 6.4668C95.7676 6.47461 95.8789 6.48828 95.9844 6.50781C96.0898 6.52344 96.1816 6.54297 96.2598 6.56641H98.4629V7.19336L97.2793 7.33984C97.3965 7.49219 97.4941 7.67578 97.5723 7.89062C97.6504 8.10547 97.6895 8.34375 97.6895 8.60547C97.6895 9.24609 97.4727 9.75586 97.0391 10.1348C96.6055 10.5098 96.0098 10.6973 95.252 10.6973C95.0723 10.6973 94.8887 10.6816 94.7012 10.6504C94.5098 10.7559 94.3633 10.873 94.2617 11.002C94.1641 11.1309 94.1152 11.2793 94.1152 11.4473C94.1152 11.5723 94.1523 11.6719 94.2266 11.7461C94.3047 11.8203 94.416 11.875 94.5605 11.9102C94.7051 11.9414 94.8789 11.957 95.082 11.957H96.2129C96.9121 11.957 97.4473 12.1035 97.8184 12.3965C98.1934 12.6895 98.3809 13.1172 98.3809 13.6797C98.3809 14.3906 98.0918 14.9355 97.5137 15.3145C96.9355 15.6934 96.0996 15.8828 95.0059 15.8828ZM95.0352 15.1211C95.5664 15.1211 96.0059 15.0664 96.3535 14.957C96.7051 14.8516 96.9668 14.6973 97.1387 14.4941C97.3145 14.2949 97.4023 14.0566 97.4023 13.7793C97.4023 13.5215 97.3438 13.3262 97.2266 13.1934C97.1094 13.0645 96.9375 12.9785 96.7109 12.9355C96.4844 12.8887 96.207 12.8652 95.8789 12.8652H94.7656C94.4766 12.8652 94.2246 12.9102 94.0098 13C93.7949 13.0898 93.6289 13.2227 93.5117 13.3984C93.3984 13.5742 93.3418 13.793 93.3418 14.0547C93.3418 14.4023 93.4883 14.666 93.7812 14.8457C94.0742 15.0293 94.4922 15.1211 95.0352 15.1211ZM95.2871 9.98828C95.752 9.98828 96.1016 9.87109 96.3359 9.63672C96.5703 9.40234 96.6875 9.06055 96.6875 8.61133C96.6875 8.13086 96.5684 7.77148 96.3301 7.5332C96.0918 7.29102 95.7402 7.16992 95.2754 7.16992C94.8301 7.16992 94.4863 7.29492 94.2441 7.54492C94.0059 7.79102 93.8867 8.15234 93.8867 8.62891C93.8867 9.06641 94.0078 9.40234 94.25 9.63672C94.4922 9.87109 94.8379 9.98828 95.2871 9.98828ZM102.201 6.46094C102.748 6.46094 103.217 6.58203 103.607 6.82422C103.998 7.06641 104.297 7.40625 104.504 7.84375C104.711 8.27734 104.814 8.78516 104.814 9.36719V9.9707H100.379C100.391 10.7246 100.578 11.2988 100.941 11.6934C101.305 12.0879 101.816 12.2852 102.477 12.2852C102.883 12.2852 103.242 12.248 103.555 12.1738C103.867 12.0996 104.191 11.9902 104.527 11.8457V12.7012C104.203 12.8457 103.881 12.9512 103.561 13.0176C103.244 13.084 102.869 13.1172 102.436 13.1172C101.818 13.1172 101.279 12.9922 100.818 12.7422C100.361 12.4883 100.006 12.1172 99.752 11.6289C99.498 11.1406 99.3711 10.543 99.3711 9.83594C99.3711 9.14453 99.4863 8.54688 99.7168 8.04297C99.9512 7.53516 100.279 7.14453 100.701 6.87109C101.127 6.59766 101.627 6.46094 102.201 6.46094ZM102.189 7.25781C101.67 7.25781 101.256 7.42773 100.947 7.76758C100.639 8.10742 100.455 8.58203 100.396 9.19141H103.795C103.791 8.80859 103.73 8.47266 103.613 8.18359C103.5 7.89062 103.326 7.66406 103.092 7.50391C102.857 7.33984 102.557 7.25781 102.189 7.25781Z" fill="#FF5959"/>
</svg>
